<svg height="180" version="1.1" width="260" xmlns="http://www.w3.org/2000/svg" style="overflow: hidden; -webkit-tap-highlight-color: rgba(0, 0, 0, 0); user-select: none; cursor: default; position: relative; background-color: rgb(255, 255, 255);"><desc>Line Chart</desc><defs><clipPath id="1FDF99C2-3CF4-4652-AFB3-AFC4F7AE3829"><rect x="51" y="33" width="189" height="98" transform="matrix(1,0,0,1,0,0)"></rect></clipPath></defs><g class="red-background-0"><rect x="0" y="0" width="260" height="180" r="0" rx="0" ry="0" fill="#ffffff" stroke="#b3b3b3" stroke-opacity="0.5" stroke-width="0" fill-opacity="0.5" style=""></rect></g><g class="red-canvas-6"><rect x="51" y="33" width="189" height="98" r="0" rx="0" ry="0" fill="none" stroke="#b7bbd1" stroke-width="0" stroke-opacity="0.6" stroke-linejoin="miter" style="stroke-linejoin: miter;"></rect><rect x="51" y="33" width="189" height="98" r="0" rx="0" ry="0" fill="#ffffff" stroke="none" stroke-width="0" fill-opacity="1" style=""></rect></g><g class="red-axisbottom-9"><g class="red-x-axis-bands-12"></g><g class="red-y-axis-bands-18"><rect x="51" y="91.79999999999997" width="189" height="19.600000000000094" r="0" rx="0" ry="0" fill="#f6f9fc" stroke="#000" fill-opacity="0.6" stroke-width="0" style=""></rect><rect x="51" y="52.59999999999994" width="189" height="19.600000000000094" r="0" rx="0" ry="0" fill="#f6f9fc" stroke="#000" fill-opacity="0.6" stroke-width="0" style=""></rect></g><g class="red-y-axis-bands-24"></g><g class="red-x-axis-lines-14"></g><g class="red-y-axis-lines-20"><path fill="none" stroke="#b3b3b3" d="M51,111.5L240,111.5" stroke-opacity="0.4" stroke-width="1" shape-rendering="crispEdges" style="shape-rendering: crispedges;"></path><path fill="none" stroke="#b3b3b3" d="M51,92.5L240,92.5" stroke-opacity="0.4" stroke-width="1" shape-rendering="crispEdges" style="shape-rendering: crispedges;"></path><path fill="none" stroke="#b3b3b3" d="M51,72.5L240,72.5" stroke-opacity="0.4" stroke-width="1" shape-rendering="crispEdges" style="shape-rendering: crispedges;"></path><path fill="none" stroke="#b3b3b3" d="M51,53.5L240,53.5" stroke-opacity="0.4" stroke-width="1" shape-rendering="crispEdges" style="shape-rendering: crispedges;"></path></g><g class="red-y-axis-lines-26"></g><g class="red-x-axis-labels-16"><text x="61" y="153" text-anchor="middle" stroke="none" fill="#888888" style="text-anchor: middle; font-family: Spoqa; font-size: 12px;" font-family="Spoqa" font-size="12px" transform="matrix(1,0,0,1,0,0)"><tspan dy="-4.399993896484375" x="61">2024.07.10</tspan></text><text x="145.5" y="153" text-anchor="middle" stroke="none" fill="#888888" style="text-anchor: middle; font-family: Spoqa; font-size: 12px;" font-family="Spoqa" font-size="12px" transform="matrix(1,0,0,1,0,0)"><tspan dy="-4.399993896484375" x="145.5">2024.07.31</tspan></text><text x="230" y="153" text-anchor="middle" stroke="none" fill="#888888" style="text-anchor: middle; font-family: Spoqa; font-size: 12px;" font-family="Spoqa" font-size="12px" transform="matrix(1,0,0,1,0,0)"><tspan dy="-4.399993896484375" x="230">2024.08.22</tspan></text></g><g class="red-y-axis-labels-22"></g><g class="red-y-axis-labels-28"></g><g class="red-axis-name-29"><text x="0" y="0" text-anchor="middle" stroke="none" fill="#888888" style="text-anchor: middle; font-family: Spoqa; font-size: 12px; font-weight: bold;" font-family="Spoqa" font-size="12px" font-weight="bold" transform="matrix(1,0,0,1,31,82)"><tspan dy="4" x="0">가격</tspan></text><text x="0" y="0" text-anchor="middle" stroke="none" fill="#888888" style="text-anchor: middle; font-family: Spoqa; font-size: 12px; font-weight: bold;" font-family="Spoqa" font-size="12px" font-weight="bold" transform="matrix(1,0,0,1,145.5,158)"><tspan dy="12.399999618530273" x="0">기준일자</tspan></text></g><g class="red-axis-lines-37"><path fill="none" stroke="#000000" d="M51,131L51,33" stroke-opacity="1" stroke-width="0.5" style=""></path></g><g class="red-axis-lines-43"><path fill="none" stroke="#000000" d="M51,131L240,131" stroke-opacity="1" stroke-width="0.5" style=""></path></g></g><g class="red-dataset-1"><g class="red-anchor-shadows-47" style=""></g><g class="red-line-connector-45" clip-path="" style=""><path fill="none" stroke="#d99103" d="M61.5,101.5L66.5,91.5L72.5,87.5L77.5,74.5L83.5,57.5L89.5,64.5L94.5,61.5L100.5,83.5L106.5,88.5L111.5,84.5L117.5,83.5L122.5,106.5L128.5,93.5L134.5,100.5L139.5,84.5L145.5,85.5L151.5,82.5L156.5,92.5L162.5,98.5L168.5,97.5L173.5,96.5L179.5,85.5L184.5,88.5L190.5,69.5L196.5,70.5L201.5,81.5L207.5,68.5L213.5,80.5L218.5,80.5L224.5,79.5L230.5,77.5" stroke-width="1" stroke-opacity="1" stroke-linecap="round" stroke-linejoin="miter" style="stroke-linecap: round; stroke-linejoin: miter;"></path></g><g class="red-line-anchors-46" style=""><path fill="#ffffff" stroke="#d99103" d="M59.5,101.5A2,2,0,0,0,63.5,101.5A2,2,0,0,0,59.5,101.5Z" fill-opacity="1" stroke-width="1" stroke-opacity="1" style=""></path><path fill="#ffffff" stroke="#d99103" d="M64.5,91.5A2,2,0,0,0,68.5,91.5A2,2,0,0,0,64.5,91.5Z" fill-opacity="1" stroke-width="1" stroke-opacity="1" style=""></path><path fill="#ffffff" stroke="#d99103" d="M70.5,87.5A2,2,0,0,0,74.5,87.5A2,2,0,0,0,70.5,87.5Z" fill-opacity="1" stroke-width="1" stroke-opacity="1" style=""></path><path fill="#ffffff" stroke="#d99103" d="M75.5,74.5A2,2,0,0,0,79.5,74.5A2,2,0,0,0,75.5,74.5Z" fill-opacity="1" stroke-width="1" stroke-opacity="1" style=""></path><path fill="#ffffff" stroke="#d99103" d="M81.5,57.5A2,2,0,0,0,85.5,57.5A2,2,0,0,0,81.5,57.5Z" fill-opacity="1" stroke-width="1" stroke-opacity="1" style=""></path><path fill="#ffffff" stroke="#d99103" d="M87.5,64.5A2,2,0,0,0,91.5,64.5A2,2,0,0,0,87.5,64.5Z" fill-opacity="1" stroke-width="1" stroke-opacity="1" style=""></path><path fill="#ffffff" stroke="#d99103" d="M92.5,61.5A2,2,0,0,0,96.5,61.5A2,2,0,0,0,92.5,61.5Z" fill-opacity="1" stroke-width="1" stroke-opacity="1" style=""></path><path fill="#ffffff" stroke="#d99103" d="M98.5,83.5A2,2,0,0,0,102.5,83.5A2,2,0,0,0,98.5,83.5Z" fill-opacity="1" stroke-width="1" stroke-opacity="1" style=""></path><path fill="#ffffff" stroke="#d99103" d="M104.5,88.5A2,2,0,0,0,108.5,88.5A2,2,0,0,0,104.5,88.5Z" fill-opacity="1" stroke-width="1" stroke-opacity="1" style=""></path><path fill="#ffffff" stroke="#d99103" d="M109.5,84.5A2,2,0,0,0,113.5,84.5A2,2,0,0,0,109.5,84.5Z" fill-opacity="1" stroke-width="1" stroke-opacity="1" style=""></path><path fill="#ffffff" stroke="#d99103" d="M115.5,83.5A2,2,0,0,0,119.5,83.5A2,2,0,0,0,115.5,83.5Z" fill-opacity="1" stroke-width="1" stroke-opacity="1" style=""></path><path fill="#ffffff" stroke="#d99103" d="M120.5,106.5A2,2,0,0,0,124.5,106.5A2,2,0,0,0,120.5,106.5Z" fill-opacity="1" stroke-width="1" stroke-opacity="1" style=""></path><path fill="#ffffff" stroke="#d99103" d="M126.5,93.5A2,2,0,0,0,130.5,93.5A2,2,0,0,0,126.5,93.5Z" fill-opacity="1" stroke-width="1" stroke-opacity="1" style=""></path><path fill="#ffffff" stroke="#d99103" d="M132.5,100.5A2,2,0,0,0,136.5,100.5A2,2,0,0,0,132.5,100.5Z" fill-opacity="1" stroke-width="1" stroke-opacity="1" style=""></path><path fill="#ffffff" stroke="#d99103" d="M137.5,84.5A2,2,0,0,0,141.5,84.5A2,2,0,0,0,137.5,84.5Z" fill-opacity="1" stroke-width="1" stroke-opacity="1" style=""></path><path fill="#ffffff" stroke="#d99103" d="M143.5,85.5A2,2,0,0,0,147.5,85.5A2,2,0,0,0,143.5,85.5Z" fill-opacity="1" stroke-width="1" stroke-opacity="1" style=""></path><path fill="#ffffff" stroke="#d99103" d="M149.5,82.5A2,2,0,0,0,153.5,82.5A2,2,0,0,0,149.5,82.5Z" fill-opacity="1" stroke-width="1" stroke-opacity="1" style=""></path><path fill="#ffffff" stroke="#d99103" d="M154.5,92.5A2,2,0,0,0,158.5,92.5A2,2,0,0,0,154.5,92.5Z" fill-opacity="1" stroke-width="1" stroke-opacity="1" style=""></path><path fill="#ffffff" stroke="#d99103" d="M160.5,98.5A2,2,0,0,0,164.5,98.5A2,2,0,0,0,160.5,98.5Z" fill-opacity="1" stroke-width="1" stroke-opacity="1" style=""></path><path fill="#ffffff" stroke="#d99103" d="M166.5,97.5A2,2,0,0,0,170.5,97.5A2,2,0,0,0,166.5,97.5Z" fill-opacity="1" stroke-width="1" stroke-opacity="1" style=""></path><path fill="#ffffff" stroke="#d99103" d="M171.5,96.5A2,2,0,0,0,175.5,96.5A2,2,0,0,0,171.5,96.5Z" fill-opacity="1" stroke-width="1" stroke-opacity="1" style=""></path><path fill="#ffffff" stroke="#d99103" d="M177.5,85.5A2,2,0,0,0,181.5,85.5A2,2,0,0,0,177.5,85.5Z" fill-opacity="1" stroke-width="1" stroke-opacity="1" style=""></path><path fill="#ffffff" stroke="#d99103" d="M182.5,88.5A2,2,0,0,0,186.5,88.5A2,2,0,0,0,182.5,88.5Z" fill-opacity="1" stroke-width="1" stroke-opacity="1" style=""></path><path fill="#ffffff" stroke="#d99103" d="M188.5,69.5A2,2,0,0,0,192.5,69.5A2,2,0,0,0,188.5,69.5Z" fill-opacity="1" stroke-width="1" stroke-opacity="1" style=""></path><path fill="#ffffff" stroke="#d99103" d="M194.5,70.5A2,2,0,0,0,198.5,70.5A2,2,0,0,0,194.5,70.5Z" fill-opacity="1" stroke-width="1" stroke-opacity="1" style=""></path><path fill="#ffffff" stroke="#d99103" d="M199.5,81.5A2,2,0,0,0,203.5,81.5A2,2,0,0,0,199.5,81.5Z" fill-opacity="1" stroke-width="1" stroke-opacity="1" style=""></path><path fill="#ffffff" stroke="#d99103" d="M205.5,68.5A2,2,0,0,0,209.5,68.5A2,2,0,0,0,205.5,68.5Z" fill-opacity="1" stroke-width="1" stroke-opacity="1" style=""></path><path fill="#ffffff" stroke="#d99103" d="M211.5,80.5A2,2,0,0,0,215.5,80.5A2,2,0,0,0,211.5,80.5Z" fill-opacity="1" stroke-width="1" stroke-opacity="1" style=""></path><path fill="#ffffff" stroke="#d99103" d="M216.5,80.5A2,2,0,0,0,220.5,80.5A2,2,0,0,0,216.5,80.5Z" fill-opacity="1" stroke-width="1" stroke-opacity="1" style=""></path><path fill="#ffffff" stroke="#d99103" d="M222.5,79.5A2,2,0,0,0,226.5,79.5A2,2,0,0,0,222.5,79.5Z" fill-opacity="1" stroke-width="1" stroke-opacity="1" style=""></path><path fill="#ffffff" stroke="#d99103" d="M228.5,77.5A2,2,0,0,0,232.5,77.5A2,2,0,0,0,228.5,77.5Z" fill-opacity="1" stroke-width="1" stroke-opacity="1" style=""></path></g></g><g class="red-axistop-10"><g class="red-x-axis-bands-11"></g><g class="red-y-axis-bands-17"></g><g class="red-y-axis-bands-23"></g><g class="red-x-axis-lines-13"></g><g class="red-y-axis-lines-19"></g><g class="red-y-axis-lines-25"></g><g class="red-x-axis-labels-15"></g><g class="red-y-axis-labels-21"></g><g class="red-y-axis-labels-27"></g></g><g class="red-datalabels-5" style=""></g><g class="red-caption-111"><text x="145.5" y="5" text-anchor="middle" stroke="none" fill="#888888" style="text-anchor: middle; font-family: Spoqa; font-size: 13px; font-weight: bold;" font-family="Spoqa" font-size="13px" font-weight="bold"><tspan dy="13.600000381469727" x="145.5">최종 고시가격 기준 (최근30영업일)</tspan></text></g><g class="red-hot-2"><circle cx="61.5" cy="101.5" r="3" fill="#c0c0c0" stroke="#c0c0c0" stroke-opacity="0.000001" stroke-width="1" fill-opacity="0.000001" style=""></circle><circle cx="66.5" cy="91.5" r="3" fill="#c0c0c0" stroke="#c0c0c0" stroke-opacity="0.000001" stroke-width="1" fill-opacity="0.000001" style=""></circle><circle cx="72.5" cy="87.5" r="3" fill="#c0c0c0" stroke="#c0c0c0" stroke-opacity="0.000001" stroke-width="1" fill-opacity="0.000001" style=""></circle><circle cx="77.5" cy="74.5" r="3" fill="#c0c0c0" stroke="#c0c0c0" stroke-opacity="0.000001" stroke-width="1" fill-opacity="0.000001" style=""></circle><circle cx="83.5" cy="57.5" r="3" fill="#c0c0c0" stroke="#c0c0c0" stroke-opacity="0.000001" stroke-width="1" fill-opacity="0.000001" style=""></circle><circle cx="89.5" cy="64.5" r="3" fill="#c0c0c0" stroke="#c0c0c0" stroke-opacity="0.000001" stroke-width="1" fill-opacity="0.000001" style=""></circle><circle cx="94.5" cy="61.5" r="3" fill="#c0c0c0" stroke="#c0c0c0" stroke-opacity="0.000001" stroke-width="1" fill-opacity="0.000001" style=""></circle><circle cx="100.5" cy="83.5" r="3" fill="#c0c0c0" stroke="#c0c0c0" stroke-opacity="0.000001" stroke-width="1" fill-opacity="0.000001" style=""></circle><circle cx="106.5" cy="88.5" r="3" fill="#c0c0c0" stroke="#c0c0c0" stroke-opacity="0.000001" stroke-width="1" fill-opacity="0.000001" style=""></circle><circle cx="111.5" cy="84.5" r="3" fill="#c0c0c0" stroke="#c0c0c0" stroke-opacity="0.000001" stroke-width="1" fill-opacity="0.000001" style=""></circle><circle cx="117.5" cy="83.5" r="3" fill="#c0c0c0" stroke="#c0c0c0" stroke-opacity="0.000001" stroke-width="1" fill-opacity="0.000001" style=""></circle><circle cx="122.5" cy="106.5" r="3" fill="#c0c0c0" stroke="#c0c0c0" stroke-opacity="0.000001" stroke-width="1" fill-opacity="0.000001" style=""></circle><circle cx="128.5" cy="93.5" r="3" fill="#c0c0c0" stroke="#c0c0c0" stroke-opacity="0.000001" stroke-width="1" fill-opacity="0.000001" style=""></circle><circle cx="134.5" cy="100.5" r="3" fill="#c0c0c0" stroke="#c0c0c0" stroke-opacity="0.000001" stroke-width="1" fill-opacity="0.000001" style=""></circle><circle cx="139.5" cy="84.5" r="3" fill="#c0c0c0" stroke="#c0c0c0" stroke-opacity="0.000001" stroke-width="1" fill-opacity="0.000001" style=""></circle><circle cx="145.5" cy="85.5" r="3" fill="#c0c0c0" stroke="#c0c0c0" stroke-opacity="0.000001" stroke-width="1" fill-opacity="0.000001" style=""></circle><circle cx="151.5" cy="82.5" r="3" fill="#c0c0c0" stroke="#c0c0c0" stroke-opacity="0.000001" stroke-width="1" fill-opacity="0.000001" style=""></circle><circle cx="156.5" cy="92.5" r="3" fill="#c0c0c0" stroke="#c0c0c0" stroke-opacity="0.000001" stroke-width="1" fill-opacity="0.000001" style=""></circle><circle cx="162.5" cy="98.5" r="3" fill="#c0c0c0" stroke="#c0c0c0" stroke-opacity="0.000001" stroke-width="1" fill-opacity="0.000001" style=""></circle><circle cx="168.5" cy="97.5" r="3" fill="#c0c0c0" stroke="#c0c0c0" stroke-opacity="0.000001" stroke-width="1" fill-opacity="0.000001" style=""></circle><circle cx="173.5" cy="96.5" r="3" fill="#c0c0c0" stroke="#c0c0c0" stroke-opacity="0.000001" stroke-width="1" fill-opacity="0.000001" style=""></circle><circle cx="179.5" cy="85.5" r="3" fill="#c0c0c0" stroke="#c0c0c0" stroke-opacity="0.000001" stroke-width="1" fill-opacity="0.000001" style=""></circle><circle cx="184.5" cy="88.5" r="3" fill="#c0c0c0" stroke="#c0c0c0" stroke-opacity="0.000001" stroke-width="1" fill-opacity="0.000001" style=""></circle><circle cx="190.5" cy="69.5" r="3" fill="#c0c0c0" stroke="#c0c0c0" stroke-opacity="0.000001" stroke-width="1" fill-opacity="0.000001" style=""></circle><circle cx="196.5" cy="70.5" r="3" fill="#c0c0c0" stroke="#c0c0c0" stroke-opacity="0.000001" stroke-width="1" fill-opacity="0.000001" style=""></circle><circle cx="201.5" cy="81.5" r="3" fill="#c0c0c0" stroke="#c0c0c0" stroke-opacity="0.000001" stroke-width="1" fill-opacity="0.000001" style=""></circle><circle cx="207.5" cy="68.5" r="3" fill="#c0c0c0" stroke="#c0c0c0" stroke-opacity="0.000001" stroke-width="1" fill-opacity="0.000001" style=""></circle><circle cx="213.5" cy="80.5" r="3" fill="#c0c0c0" stroke="#c0c0c0" stroke-opacity="0.000001" stroke-width="1" fill-opacity="0.000001" style=""></circle><circle cx="218.5" cy="80.5" r="3" fill="#c0c0c0" stroke="#c0c0c0" stroke-opacity="0.000001" stroke-width="1" fill-opacity="0.000001" style=""></circle><circle cx="224.5" cy="79.5" r="3" fill="#c0c0c0" stroke="#c0c0c0" stroke-opacity="0.000001" stroke-width="1" fill-opacity="0.000001" style=""></circle><circle cx="230.5" cy="77.5" r="3" fill="#c0c0c0" stroke="#c0c0c0" stroke-opacity="0.000001" stroke-width="1" fill-opacity="0.000001" style=""></circle></g><g class="red-buttons-4"></g></svg>